HIERARCHY
ROOT root
{
    OFFSET 0.000000 0.000000 0.000000
    CHANNELS 6 Xposition Yposition Zposition Zrotation Xrotation Yrotation
}
MOTION
Frames:    96
Frame Time:    0.010000
-16.780939    191.788818    59.399891    -41.225334    6.818825    -17.792351    
-16.893225    191.784241    59.531639    -41.412624    6.935433    -17.678003    
-17.024551    191.790146    59.697735    -41.373993    7.057944    -17.786898    
-17.128023    191.773819    59.818504    -41.284370    7.105381    -17.680099    
-17.246004    191.777496    59.970547    -41.287186    7.143855    -17.748758    
-17.344675    191.791504    60.101963    -41.409405    6.941995    -17.364635    
-17.470085    191.765778    60.246140    -41.269192    7.019097    -17.423468    
-17.597832    191.760742    60.386211    -41.261738    6.943081    -17.375999    
-17.695185    191.750473    60.496563    -41.277790    6.939250    -17.346935    
-17.821484    191.742920    60.641937    -41.207451    6.829970    -17.391453    
-17.901983    191.697479    60.820465    -41.044605    6.747714    -17.404175    
-18.021034    191.686554    60.965302    -41.065254    6.922296    -17.498653    
-18.091574    191.639206    61.142826    -41.021278    6.891537    -17.507219    
-18.176865    191.614746    61.266338    -41.211830    6.872759    -17.451992    
-18.239222    191.572983    61.455715    -41.115871    6.857262    -17.381901    
-18.312239    191.534332    61.614365    -41.258713    6.933025    -17.479836    
-18.372957    191.520462    61.764515    -41.303986    6.887583    -17.313013    
-18.422344    191.481293    61.964947    -41.515884    7.054936    -17.344328    
-18.454027    191.449890    62.126766    -41.713245    7.034543    -17.168596    
-18.508104    191.336090    62.332047    -41.761036    7.010816    -17.259861    
-18.513288    191.342484    62.524776    -41.920517    7.040254    -17.161371    
-18.585537    191.270737    62.672943    -42.054012    7.042418    -17.141514    
-18.617104    191.257477    62.859951    -41.927990    6.941654    -17.036108    
-18.686693    191.217834    63.000404    -42.052952    6.953867    -17.034626    
-18.709040    191.215546    63.212353    -42.020218    7.023047    -17.008724    
-18.741482    191.187943    63.354099    -42.032658    7.016131    -16.968933    
-18.821245    191.140610    63.532185    -42.003769    6.969561    -17.017515    
-18.831808    191.136673    63.719631    -41.890125    7.005798    -17.069807    
-18.897057    191.101227    63.897408    -41.996944    6.916751    -17.014853    
-18.914324    191.127670    64.043007    -41.891216    6.876001    -17.026655    
-18.988878    191.074005    64.233246    -41.976093    6.833517    -16.981068    
-19.014946    191.056900    64.394356    -41.992653    6.819940    -16.945854    
-19.055298    191.040482    64.593758    -41.953381    6.721904    -16.900385    
-19.072468    191.025085    64.760643    -42.064079    6.694432    -16.828472    
-19.098654    190.998901    64.985809    -41.861462    6.635711    -16.818207    
-19.118544    190.957779    65.185875    -41.767818    6.735754    -16.915054    
-19.140549    190.938538    65.397881    -41.849453    6.730073    -16.843580    
-19.153126    190.902176    65.596741    -41.734127    6.716823    -16.886072    
-19.171875    190.864731    65.826645    -41.717625    6.687085    -16.727177    
-19.178230    190.847534    66.014740    -41.668251    6.704301    -16.609453    
-19.185057    190.794586    66.231720    -41.730019    6.757155    -16.564983    
-19.173061    190.753983    66.436783    -41.943871    6.771366    -16.527508    
-19.168869    190.707703    66.679131    -41.843357    6.841492    -16.579111    
-19.140284    190.658829    66.892365    -41.969879    6.969138    -16.483887    
-19.125240    190.627075    67.095253    -42.049679    6.965083    -16.424898    
-19.112154    190.544174    67.332108    -42.016155    7.145387    -16.581882    
-19.091698    190.495178    67.555283    -42.047920    7.104176    -16.618050    
-19.088881    190.408310    67.769783    -41.931976    7.093721    -16.672964    
-19.059353    190.355774    67.946541    -41.960003    7.128019    -16.651762    
-19.026640    190.260605    68.184769    -41.937843    7.159487    -16.918518    
-18.997561    190.217957    68.367302    -42.125942    7.104137    -16.788723    
-18.946186    190.101349    68.600349    -42.036987    7.095215    -17.041567    
-18.919552    190.039246    68.826546    -42.255207    7.259358    -17.051987    
-18.856270    189.937683    69.019691    -42.283215    7.227713    -17.186363    
-18.802973    189.861145    69.250191    -42.422924    7.364386    -17.104939    
-18.746351    189.799484    69.478798    -42.579891    7.522667    -17.117460    
-18.675508    189.732208    69.673332    -42.876881    7.608770    -17.105276    
-18.622580    189.691177    69.903503    -42.993317    7.592075    -17.091806    
-18.547754    189.614624    70.118294    -43.263191    7.693323    -17.035366    
-18.472387    189.559860    70.314941    -43.307381    7.536958    -16.971331    
-18.425686    189.526138    70.517456    -43.464108    7.666872    -17.045866    
-18.381165    189.479004    70.734482    -43.612984    7.601903    -17.008274    
-18.340767    189.460632    70.871338    -43.592705    7.640519    -16.955643    
-18.298996    189.413788    71.098099    -43.670551    7.589926    -16.980236    
-18.270477    189.394730    71.269485    -43.661625    7.651546    -17.037809    
-18.231714    189.355438    71.481110    -43.593056    7.639202    -17.186068    
-18.205721    189.344772    71.644508    -43.738758    7.660501    -17.044899    
-18.152258    189.314117    71.812645    -43.744358    7.517694    -17.110050    
-18.147915    189.296417    71.987732    -43.792942    7.615578    -17.041359    
-18.128807    189.274078    72.169510    -43.794487    7.423837    -16.979815    
-18.106258    189.245773    72.379997    -43.864071    7.537137    -16.850349    
-18.097799    189.261246    72.500504    -43.899300    7.445930    -16.825254    
-18.069540    189.229401    72.695572    -43.913578    7.620662    -16.748962    
-18.079996    189.220840    72.832581    -43.897572    7.602255    -16.764130    
-18.079643    189.212601    72.983208    -43.922031    7.542729    -16.723747    
-18.059481    189.186935    73.123085    -43.938541    7.570282    -16.789875    
-18.084217    189.167816    73.230537    -43.859993    7.429623    -16.800083    
-18.116400    189.151993    73.345345    -43.746010    7.177282    -16.771921    
-18.133684    189.126251    73.466530    -43.556446    7.134542    -16.864212    
-18.146214    189.120605    73.552879    -43.405975    6.959095    -16.840342    
-18.178915    189.126511    73.688675    -43.107563    6.856781    -16.870340    
-18.194841    189.125854    73.821098    -43.191711    6.880650    -16.784090    
-18.207874    189.118546    73.940384    -43.099159    6.834315    -16.739126    
-18.192343    189.117157    74.077591    -43.202831    6.716955    -16.614788    
-18.181971    189.094437    74.247963    -43.252861    6.855495    -16.549170    
-18.166872    189.100647    74.368011    -43.387306    6.893076    -16.436672    
-18.150572    189.070648    74.527451    -43.551628    6.932667    -16.360317    
-18.141920    189.056046    74.667953    -43.506187    7.079937    -16.355412    
-18.127323    189.040421    74.772133    -43.579208    6.945515    -16.240219    
-18.111647    189.028687    74.901108    -43.685875    7.052522    -16.135075    
-18.101877    188.988831    75.053246    -43.690144    7.085953    -16.183022    
-18.116982    188.982681    75.154617    -43.676823    6.950082    -16.036018    
-18.121571    188.978928    75.291191    -43.849953    6.966000    -15.969693    
-18.111006    188.947159    75.409492    -43.813293    6.993486    -16.062429    
-18.112127    188.919189    75.556450    -43.857750    6.980484    -16.072681    
-18.143427    188.921600    75.635376    -44.097015    7.026371    -15.949321    
